<svg xmlns="http://www.w3.org/2000/svg" id="sw-js-blob-svg" viewBox="0 0 100 100" version="1.1">
  <defs>
    <linearGradient id="sw-gradient" x1="0" x2="1" y1="1" y2="0">
      <stop id="stop1" stop-color="rgba(248, 55, 179.626, 1)" offset="0%" />
      <stop id="stop2" stop-color="rgba(251, 168, 31, 1)" offset="100%" />
    </linearGradient>
  </defs>
  <path xmlns="http://www.w3.org/2000/svg" fill="url(#sw-gradient)"
    d="M27.8,-31.9C34.5,-27.5,37.4,-17.3,38.8,-7.2C40.1,2.9,39.9,12.9,35.2,19.7C30.6,26.5,21.4,30.1,12,33.9C2.7,37.6,-6.9,41.5,-13.8,38.6C-20.6,35.8,-24.8,26.2,-29.9,17.3C-35,8.4,-41,0,-40.9,-8.3C-40.7,-16.7,-34.4,-25,-26.5,-29.3C-18.7,-33.5,-9.3,-33.7,0.6,-34.4C10.5,-35.1,21,-36.4,27.8,-31.9Z"
    width="100%" height="100%" transform="translate(50 50)" stroke-width="0"
    style="transition: all 0.3s ease 0s;" />
  <text x="32" y="61" fill="white" font-weight="bold" font-size="2.5em">M</text>
</svg>